<?xml version="1.0" encoding="UTF-8" standalone="no"?><!DOCTYPE svg PUBLIC "-//W3C//DTD SVG 1.1//EN" "http://www.w3.org/Graphics/SVG/1.1/DTD/svg11.dtd"><svg width="100%" height="100%" viewBox="0 0 5609 2434" version="1.1" xmlns="http://www.w3.org/2000/svg" xmlns:xlink="http://www.w3.org/1999/xlink" xml:space="preserve" xmlns:serif="http://www.serif.com/" style="fill-rule:evenodd;clip-rule:evenodd;stroke-linejoin:round;stroke-miterlimit:2;"><g><path d="M808.333,527.083l-1.946,-376.889c0,0 165.279,-1.445 391.529,1.055c105.417,1.25 114.167,2.083 136.25,10.833c25.417,9.583 60,31.667 79.583,50c28.75,26.667 57.917,84.167 61.667,121.25c0.833,10.417 15.764,619.306 1.667,768.75c-4.83,51.199 -110.417,150 -110.417,150c0,0 66.667,61.25 78.75,79.167c6.25,9.167 15.833,28.75 21.667,43.75c9.167,25.417 9.167,196.25 0.417,222.917c-24.167,72.5 -70.833,118.75 -141.667,141.25l-32.083,6.667c0,0 -476.25,0.833 -477.917,0.417c-2.083,0 -7.5,-852.5 -7.5,-852.5l0,-366.667Zm288.867,603.879l71.686,-0c13.188,0 23.895,-10.707 23.895,-23.895l0,-696.642c0,-13.188 -10.707,-23.895 -23.895,-23.895l-71.686,0l0,744.433Zm-0,382.326l71.686,-0c13.188,0 23.895,-10.707 23.895,-23.895l0,-86.391c0,-13.188 -10.707,-23.895 -23.895,-23.895l-71.686,0l0,134.182Zm-286.89,-982.879l0,361.386l0,-361.386" style="fill:#ff4000;"/><path d="M808.333,893.75l-410,374.583l-166.25,-177.083l409.543,-378.855c0,0 -408.293,-381.561 -408.293,-384.061c0,-2.083 162.917,-172.917 162.917,-172.917l268.75,244.583l143.333,127.083l0,366.667Z" style="fill:#ea1744;"/><rect x="1627.573" y="148.592" width="280.76" height="207.658" style="fill:#ff4000;fill-rule:nonzero;"/><path d="M2050,148.592l0,1600.574l479.167,0l-2.083,-234.167l-193.034,0.102l-0,-1367.746l-284.05,1.236Z" style="fill:#ff4000;fill-rule:nonzero;"/><path d="M2618.333,152.083c-0.833,2.083 0.417,1595.833 0.417,1595.833l474.417,1.25l0.583,-234.583l-193.581,0.519l-0.728,-1366.51c0,0 -279.858,-0.676 -281.108,3.491Z" style="fill:#ff4000;fill-rule:nonzero;"/><path d="M3787.962,148.592l-603.417,-0.041c0,0 -5.417,1599.781 0,1600.615c3.333,0.833 603.417,-0 603.417,-0l0,-234.065l-316.936,0l0,-384.139l218.973,0l-0.239,-239.092l-218.735,-0l0,-505.985l316.473,1.615l0.462,-238.908Z" style="fill:#ff4000;fill-rule:nonzero;"/><path d="M5154.167,148.633l-603.417,-0.041c0,0 -5.417,1599.781 0,1600.615c3.333,0.833 603.417,-0 603.417,-0l0,-234.065l-316.936,0l0,-384.139l218.973,0l-0.239,-239.092l-218.735,-0l0,-505.985l316.473,1.615l0.462,-238.908Z" style="fill:#ff4000;fill-rule:nonzero;"/><path d="M3858.333,148.552l0,237.333l153.825,0l0,1363.281l294.176,-0l-0,-1363.281l158.249,-0l0,-237.293l-606.25,-0.041Z" style="fill:#ff4000;fill-rule:nonzero;"/><path d="M1626.424,466.667l-3.507,1279.167l285.417,-1.25l-0,-1277.917l-281.91,0Z" style="fill:#ff4000;fill-rule:nonzero;"/><path d="M2268.75,1821.25c-24.167,8.75 -48.75,34.583 -55.417,57.5c-4.167,15 -9.167,42.5 -17.083,99.583c-2.5,16.667 -4.583,67.083 -4.583,112.083c0,72.083 1.25,85.833 8.75,110c15.833,50.417 46.667,74.583 95.417,74.583c54.583,0 85,-33.333 98.333,-106.25c7.5,-41.667 7.5,-209.167 0,-248.75c-7.917,-40.833 -21.25,-75 -33.75,-86.667c-22.5,-20.833 -56.25,-25.417 -91.667,-12.083Zm56.667,68.333c11.25,18.75 17.083,92.5 15.417,187.5c-1.25,75 -2.083,85.417 -10.417,102.917c-6.25,14.167 -13.333,22.083 -23.75,26.667c-13.333,6.667 -15,6.667 -25,0c-24.583,-15.833 -25.417,-19.583 -25,-134.583c0.833,-153.333 11.667,-199.167 47.083,-196.25c11.25,0.833 16.25,4.167 21.667,13.75Z" style="fill:#ea1744;fill-rule:nonzero;"/><path d="M1257.083,1831.667c-1.667,1.667 -2.917,97.083 -2.917,212.083c0,179.167 0.833,210 6.25,214.583c6.667,5.833 46.25,2.083 55.417,-5c3.333,-3.333 5,-20.833 5,-62.083c0,-54.167 0.417,-57.917 8.75,-62.083c10.417,-5.833 31.25,1.25 37.083,12.5c2.083,3.75 5,30.417 6.25,58.75c1.667,34.583 4.167,53.333 7.917,57.083c9.167,9.167 38.333,11.25 50.417,3.333c10.417,-6.667 10.417,-7.917 10.417,-60c0,-36.667 -2.083,-60.417 -6.667,-75.417l-6.25,-22.083l14.167,-30c10.417,-20.833 15.417,-37.917 17.5,-58.75c1.667,-16.25 3.333,-36.25 4.167,-45c1.667,-17.5 -6.667,-69.167 -13.75,-86.667c-6.667,-17.083 -25.417,-36.667 -43.333,-45.833c-13.75,-7.083 -22.083,-8.333 -46.667,-6.25c-36.25,2.5 -35.417,2.5 -71.25,0c-16.25,-1.25 -30.833,-0.833 -32.5,0.833Zm119.583,57.917c20,15.417 23.333,26.25 23.333,82.5c0,62.917 -6.667,82.5 -31.667,92.917c-17.917,7.5 -41.667,3.75 -47.5,-7.083c-5.417,-10 -5.417,-156.25 0,-166.667c3.75,-6.25 8.75,-7.917 26.25,-7.917c12.5,0 25,2.917 29.583,6.25Z" style="fill:#ea1744;fill-rule:nonzero;"/><path d="M1644.583,1831.667c-0.833,0.833 -33.333,2.917 -72.083,4.167c-42.917,1.25 -72.5,3.75 -75.833,6.667c-8.333,7.083 -4.167,415.417 4.167,420.417c2.917,2.083 41.25,3.75 85.417,3.75c92.083,0 92.917,-0.417 92.917,-33.75c0,-16.667 -1.25,-20.417 -7.083,-20.417c-25.417,0 -103.333,-9.167 -107.5,-12.5c-6.667,-5.833 -8.75,-156.667 -2.083,-165c4.167,-4.583 16.25,-5.833 52.5,-5.833c53.75,0 64.167,-5 64.167,-29.583c0,-27.083 -2.917,-28.75 -60,-28.75c-39.167,0 -52.5,-1.25 -56.25,-5.833c-3.333,-3.75 -4.583,-17.917 -3.75,-38.75l1.25,-32.5l47.917,-2.083c62.5,-2.917 63.333,-3.333 61.667,-32.5c-1.25,-21.25 -2.083,-23.333 -12.5,-26.25c-6.25,-1.667 -12.083,-2.083 -12.917,-1.25Z" style="fill:#ea1744;fill-rule:nonzero;"/><path d="M1806.25,1837.083c-39.583,17.917 -58.75,44.583 -73.333,102.5c-7.917,32.5 -9.167,48.333 -9.167,116.667c0,85 4.583,113.75 22.5,150c21.25,42.5 52.5,61.667 99.583,61.667c35.833,0 50.417,-5.833 70,-27.917c15,-17.083 22.917,-33.75 31.667,-65c16.667,-60.833 12.5,-75.833 -19.583,-76.667c-10.417,-0.417 -20.833,1.25 -23.333,3.75c-2.083,2.083 -6.25,16.25 -9.167,31.25c-9.167,47.083 -28.75,65.833 -64.167,61.667c-16.667,-1.667 -34.583,-25.833 -40,-53.75c-16.25,-84.583 -4.583,-197.917 24.167,-236.25c8.75,-11.667 12.083,-13.333 30.417,-13.333c16.667,0 22.083,2.083 32.083,12.083c12.083,12.083 20.833,39.167 23.333,71.25c0.833,14.583 0.833,14.583 23.333,15.833c16.25,0.833 24.167,-0.417 30,-5.833c10,-8.75 10,-17.5 0.417,-54.167c-9.583,-35.833 -23.75,-64.583 -37.917,-77.917c-25.417,-23.333 -78.333,-30.833 -110.833,-15.833Z" style="fill:#ea1744;fill-rule:nonzero;"/><path d="M1074.583,1840c-6.667,8.333 -9.167,32.917 -4.167,42.917c3.333,5.833 8.75,8.75 16.667,8.75c6.667,0 14.167,2.5 16.667,5.833c3.333,3.75 4.583,48.333 3.75,155l-1.25,149.583l-33.333,4.167l-1.25,26.667c-0.833,18.75 0.417,27.917 4.167,30c6.25,4.167 115.833,5 125.833,1.25c5,-2.083 6.667,-8.333 6.667,-26.667c0,-25 -6.667,-36.667 -18.333,-32.083c-3.333,1.25 -8.75,0 -12.5,-2.5c-6.25,-4.583 -6.667,-21.25 -5.833,-157.083l1.25,-152.083l33.333,-4.167l1.25,-26.25c0.833,-19.167 0,-25.833 -4.167,-25.833c-2.917,0 -32.083,-0.833 -65,-1.25c-43.333,-1.25 -60.417,0 -63.75,3.75Z" style="fill:#ea1744;fill-rule:nonzero;"/><rect x="2479.648" y="1837.514" width="2776.149" height="142.267" style="fill:#ff4000;fill-rule:nonzero;"/><path d="M825.833,1840.833c-4.167,2.917 -5.417,45.833 -6.25,210.833c-0.833,180 0,207.5 5.417,211.25c3.75,2.5 28.333,3.75 58.333,2.917c48.75,-1.25 53.333,-2.083 72.083,-12.917c34.167,-20 56.667,-65.417 68.333,-136.25c5.833,-33.75 5.833,-48.75 1.667,-100c-5,-64.167 -10,-86.25 -26.667,-119.167c-13.333,-26.25 -22.083,-35.833 -42.5,-47.5c-14.583,-8.333 -24.167,-10 -70.833,-11.25c-29.583,-0.833 -56.667,0 -59.583,2.083Zm104.583,62.083c31.25,29.583 45,109.583 33.75,195.833c-9.583,73.75 -24.167,99.167 -57.917,99.167c-10,0 -19.583,-1.667 -21.667,-3.333c-4.167,-4.167 -4.167,-289.583 0,-300.417c4.167,-11.25 30,-6.25 45.833,8.75Z" style="fill:#ea1744;fill-rule:nonzero;"/><path d="M1975.417,1845c-6.25,11.25 -5.833,35.417 0.417,41.667c2.917,2.917 15.833,5 29.167,5c19.167,0 24.583,1.667 28.333,7.917c2.5,5.417 4.167,71.25 4.167,185c0,150.833 0.833,177.5 5.833,179.167c7.917,3.333 47.5,-2.917 52.5,-7.917c2.5,-2.5 4.583,-80 5,-182.917l1.25,-179.167l30,-1.25l29.583,-1.25l2.917,-20.833c1.667,-12.083 1.25,-22.917 -0.833,-25c-2.083,-2.083 -44.583,-5 -93.75,-6.667c-88.333,-2.5 -90,-2.5 -94.583,6.25Z" style="fill:#ea1744;fill-rule:nonzero;"/></g></svg>